<svg xmlns="http://www.w3.org/2000/svg"  viewBox="0 0 32 32" width="32px" height="32px" baseProfile="basic"><path d="M16.689,3.512C13.287,3.08,9.95,3.6,7.525,4.937C7.299,5.062,7.108,5.243,6.973,5.463 c-3.075,4.991-3.254,12.109-0.669,18.561c-0.71-0.205-1.47-0.34-2.279-0.392c-0.838-0.051-1.54,0.573-1.594,1.4 c-0.053,0.827,0.574,1.54,1.4,1.594c1.12,0.072,2.68,0.384,3.749,1.462c0.394,0.396,0.909,0.605,1.438,0.605 c0.225,0,0.451-0.037,0.672-0.115c0.733-0.258,1.24-0.902,1.323-1.68c0.152-1.405,1.201-2.582,2.054-3.32 c0.626-0.543,0.693-1.49,0.151-2.116c-0.542-0.625-1.488-0.694-2.116-0.151c-0.747,0.648-1.35,1.343-1.835,2.064 c-2.38-5.558-2.402-11.684,0.053-15.99c1.838-0.89,4.414-1.226,6.989-0.896c0.816,0.098,1.572-0.478,1.678-1.299 C18.093,4.367,17.511,3.616,16.689,3.512z"/><path d="M28.169,5.374c-1.12-0.072-2.68-0.384-3.749-1.462c-0.562-0.563-1.371-0.753-2.11-0.49c-0.733,0.258-1.24,0.902-1.323,1.68 c-0.152,1.405-1.201,2.582-2.054,3.32c-0.626,0.543-0.693,1.49-0.151,2.116c0.297,0.342,0.715,0.518,1.135,0.518 c0.348,0,0.697-0.12,0.981-0.366c0.747-0.648,1.35-1.343,1.835-2.064c2.38,5.558,2.402,11.684-0.053,15.99 c-1.837,0.89-4.415,1.225-6.989,0.896c-0.824-0.102-1.573,0.478-1.678,1.299c-0.104,0.822,0.478,1.573,1.299,1.678 c0.785,0.1,1.566,0.148,2.334,0.148c2.559,0,4.965-0.545,6.83-1.573c0.227-0.125,0.417-0.307,0.553-0.526 c3.075-4.991,3.254-12.109,0.669-18.561c0.71,0.205,1.47,0.34,2.279,0.392c0.848,0.055,1.541-0.573,1.594-1.4 S28.995,5.428,28.169,5.374z"/></svg>